<?xml version="1.0" standalone="no"?>
<!DOCTYPE svg PUBLIC "-//W3C//DTD SVG 1.1//EN" "http://www.w3.org/Graphics/SVG/1.1/DTD/svg11.dtd" >
<svg xmlns="http://www.w3.org/2000/svg">
<metadata></metadata>
<defs>
<font id="din-regularregular" horiz-adv-x="1069" >
<font-face units-per-em="2048" ascent="1638" descent="-410" />
<missing-glyph horiz-adv-x="509" />
<glyph horiz-adv-x="0" />
<glyph unicode="&#xd;" horiz-adv-x="509" />
<glyph unicode=" "  horiz-adv-x="509" />
<glyph unicode="&#x09;" horiz-adv-x="509" />
<glyph unicode="&#xa0;" horiz-adv-x="509" />
<glyph unicode="!" horiz-adv-x="647" d="M266 0h176v172h-176v-172zM270 1458l21 -1048h127l22 1048h-170z" />
<glyph unicode="&#x22;" horiz-adv-x="866" d="M180 1110h162v348h-162v-348zM524 1110h162v348h-162v-348z" />
<glyph unicode="#" horiz-adv-x="1337" d="M158 465h182l-74 -465h152l71 465h328l-74 -465h152l74 465h202v131h-182l47 289h197v135h-178l69 440h-149l-70 -440h-325l71 440h-153l-70 -440h-207v-135h189l-48 -289h-204v-131zM512 596l47 289h326l-47 -289h-326z" />
<glyph unicode="$" horiz-adv-x="1220" d="M86 180q96 -96 201.5 -141t249.5 -51v-221h122v225q205 14 326 123.5t121 285.5q0 182 -125 289q-45 39 -103.5 62.5t-160.5 40.5l-64 10v530q88 -6 157 -36.5t130 -86.5l100 101q-86 76 -175 113.5t-206 43.5v183h-122v-183q-190 -14 -301 -124.5t-111 -284.5 q0 -172 113 -273q47 -41 117.5 -71.5t148.5 -38.5l41 -4v-543q-104 4 -188.5 41t-163.5 117zM279 1065q0 115 69.5 186.5t196.5 81.5v-516q-55 8 -107.5 27.5t-93.5 52.5q-66 57 -65 168zM653 129v526l27 -4q72 -8 115 -21.5t84 -49.5q71 -62 71 -183q0 -117 -78.5 -187.5 t-218.5 -80.5z" />
<glyph unicode="%" horiz-adv-x="1705" d="M133 981q0 -123 78 -198.5t199 -75.5t198.5 75.5t77.5 198.5v215q0 125 -78 201t-198 76q-121 0 -199 -76t-78 -201v-215zM250 985v207q0 86 39 132t121 46q80 0 119.5 -47t39.5 -131v-207q0 -84 -40 -130t-119 -46q-80 0 -120 46t-40 130zM451 0h122l684 1458h-122z M1022 262q0 -125 78 -200.5t198 -75.5q121 0 199 75.5t78 200.5v215q0 125 -78 201t-199 76t-198.5 -76t-77.5 -201v-215zM1139 266v207q0 86 39 132t120 46q80 0 120 -47t40 -131v-207q0 -84 -40 -131t-120 -47q-82 0 -120.5 46t-38.5 132z" />
<glyph unicode="&#x26;" horiz-adv-x="1513" d="M158 412q0 -193 125 -308.5t335 -115.5q152 0 255.5 52t175.5 120l131 -160h194l-223 268q131 158 135 447h-147q-2 -123 -19.5 -194.5t-62.5 -139.5l-373 448q18 12 54 37t55 37q76 53 118.5 115.5t42.5 144.5q0 131 -90 219t-227 88q-139 0 -230.5 -87t-91.5 -218 q0 -84 40 -154.5t114 -156.5l4 -6q-74 -49 -126 -89t-95 -91.5t-68.5 -115t-25.5 -140.5zM309 416q0 109 59.5 176t182.5 151l8 7l402 -484q-88 -78 -171 -109.5t-174 -31.5q-135 0 -221 81t-86 210zM469 1167q0 74 47 122t121 48t123 -50t49 -124q0 -57 -34 -98t-97 -84 q-12 -8 -37 -25.5t-41 -27.5q-76 92 -103.5 141t-27.5 98z" />
<glyph unicode="'" horiz-adv-x="522" d="M180 1110h162v348h-162v-348z" />
<glyph unicode="(" horiz-adv-x="610" d="M188 195q0 -61 9.5 -112.5t33.5 -98.5q23 -43 52.5 -77t83.5 -87l12 -13l100 101l-16 16q-72 70 -94 117q-33 66 -33 166v1044q0 100 33 166q23 47 94 117l16 16l-100 101l-12 -13q-51 -51 -81 -85.5t-55 -77.5q-25 -45 -34 -97.5t-9 -113.5v-1069z" />
<glyph unicode=")" horiz-adv-x="610" d="M127 -88l104 -105l13 13q51 51 80.5 86t54.5 78q25 45 33 95t8 116v1069q0 68 -8.5 117t-32.5 94q-23 43 -52.5 76.5t-82.5 86.5l-13 13l-104 -105q14 -14 23 -22q68 -66 90 -111q29 -57 28 -162v-1044q0 -104 -28 -162q-23 -45 -90 -111q-8 -8 -23 -22z" />
<glyph unicode="*" horiz-adv-x="970" d="M137 967l60 -101l237 146l-8 -281h119l-8 281l239 -146l58 101l-246 133l246 135l-58 98l-239 -145l8 280h-119l8 -280l-237 145l-60 -98l246 -135z" />
<glyph unicode="+" d="M106 479h361v-360h137v360h359v137h-359v357h-137v-357h-361v-137z" />
<glyph unicode="," horiz-adv-x="540" d="M180 180v-475l180 162v313h-180z" />
<glyph unicode="-" horiz-adv-x="872" d="M156 483h561v138h-561v-138z" />
<glyph unicode="." horiz-adv-x="552" d="M180 0h193v193h-193v-193z" />
<glyph unicode="/" horiz-adv-x="727" d="M0 -152h145l584 1762h-145z" />
<glyph unicode="0" d="M135 389q0 -178 113.5 -289.5t286.5 -111.5q172 0 285.5 111.5t113.5 289.5v680q0 178 -113.5 289.5t-285.5 111.5t-286 -111.5t-114 -289.5v-680zM283 397v664q0 123 66.5 200.5t185.5 77.5t185 -77.5t66 -200.5v-664q0 -123 -66.5 -200.5t-184.5 -77.5 q-119 0 -185.5 77.5t-66.5 200.5z" />
<glyph unicode="1" d="M256 1055l272 239v-1294h148v1458h-148l-272 -235v-168z" />
<glyph unicode="2" d="M139 0h805v131h-627l510 651q63 80 90 145.5t27 149.5q0 178 -110.5 285.5t-290.5 107.5t-291 -110.5t-111 -284.5h148q0 133 71.5 198.5t182.5 65.5q119 0 186.5 -71.5t67.5 -190.5q0 -57 -19.5 -108t-62.5 -107l-576 -731v-131z" />
<glyph unicode="3" d="M86 371q8 -190 127 -287.5t301 -97.5q186 0 307 108t121 303q0 272 -223 357q197 90 196 323q0 178 -111.5 287t-289.5 109q-170 0 -283.5 -100.5t-126.5 -274.5h148q10 113 78.5 178t183.5 65q111 0 182.5 -69.5t71.5 -196.5q0 -125 -64.5 -194.5t-195.5 -69.5h-31v-129 h31q145 0 216 -73.5t71 -209.5q0 -131 -79 -206.5t-202 -75.5q-115 0 -193.5 62.5t-87.5 191.5h-147z" />
<glyph unicode="4" d="M82 231h582v-231h145v231h178v134h-178v413h-145v-413h-424l526 1093h-158l-526 -1093v-134z" />
<glyph unicode="5" d="M143 344q12 -162 103 -254q49 -49 124.5 -76.5t168.5 -27.5q182 0 290 108q72 72 94.5 164t22.5 223q0 125 -24.5 222.5t-96.5 168.5q-92 92 -252 93q-172 0 -262 -101v463h604v131h-737v-766h133q23 66 86.5 105t155.5 39q76 0 125 -29t75.5 -79t36 -111.5t9.5 -135.5 q0 -102 -14.5 -173.5t-65.5 -123.5q-68 -68 -180 -67q-113 0 -173.5 58t-74.5 169h-148z" />
<glyph unicode="6" d="M133 408q0 -190 110.5 -305t295.5 -115q182 0 292.5 122t110.5 310q0 182 -104.5 298t-274.5 116q-86 0 -153 -31l325 655h-151l-359 -723q-47 -94 -69.5 -172t-22.5 -155zM281 414q0 135 69.5 215t186.5 80q121 0 189.5 -84t68.5 -211q0 -133 -71 -214t-187 -81 q-117 0 -186.5 81t-69.5 214z" />
<glyph unicode="7" d="M156 1098h145v229h508l-506 -1327h156l506 1327v131h-809v-360z" />
<glyph unicode="8" d="M104 401q0 -90 33 -166.5t92.5 -132t137 -85t168.5 -29.5q90 0 168.5 29.5t137 85t91.5 132t33 166.5q0 121 -58.5 210t-158.5 145q90 51 139 132t49 191q0 170 -113.5 280.5t-287.5 110.5t-288 -110.5t-114 -280.5q0 -111 50 -191.5t141 -131.5q-100 -57 -160 -145.5 t-60 -209.5zM252 403q0 121 82 203t201 82q121 0 201.5 -82t80.5 -203t-81 -202.5t-201 -81.5q-119 0 -201 82t-82 202zM281 1077q0 115 70.5 188.5t183.5 73.5t183 -73.5t70 -188.5t-70.5 -187.5t-182.5 -72.5q-113 0 -183.5 73t-70.5 187z" />
<glyph unicode="9" d="M127 1038q0 -180 104.5 -296.5t272.5 -116.5q88 0 155 30l-327 -655h153l359 723q47 94 69.5 172t22.5 156q0 190 -110.5 304.5t-295.5 114.5q-182 0 -292.5 -121.5t-110.5 -310.5zM274 1044q0 135 70 215t186 80q117 0 187.5 -81t70.5 -214q0 -135 -70.5 -214.5 t-187.5 -79.5q-121 0 -188.5 84t-67.5 210z" />
<glyph unicode=":" horiz-adv-x="608" d="M236 0h192v193h-192v-193zM236 616h192v193h-192v-193z" />
<glyph unicode=";" horiz-adv-x="608" d="M236 616h192v193h-192v-193zM240 180v-475l180 162v313h-180z" />
<glyph unicode="&#x3c;" horiz-adv-x="671" d="M82 549l430 430v-184l-246 -246l246 -248v-182z" />
<glyph unicode="=" d="M106 309h857v135h-857v-135zM106 655h857v138h-857v-138z" />
<glyph unicode="&#x3e;" horiz-adv-x="671" d="M160 119v182l248 248l-248 246v184l430 -430z" />
<glyph unicode="?" horiz-adv-x="1017" d="M156 1096h147q0 100 65.5 171.5t172.5 71.5q102 0 168.5 -68.5t66.5 -172.5q0 -47 -16.5 -85t-50.5 -89l-166 -240q-35 -49 -49.5 -92t-14.5 -100v-82h148v79q0 27 10 60t27 59l167 242q45 66 69 124t24 124q0 80 -29 148.5t-82 119.5t-122.5 77.5t-149.5 26.5 q-82 0 -153 -28.5t-123 -79.5t-80.5 -119.5t-28.5 -146.5zM465 0h176v172h-176v-172z" />
<glyph unicode="@" horiz-adv-x="1460" d="M147 328q0 -135 33 -206t127 -140l101 100q-70 53 -93.5 101t-23.5 147v690q0 84 18.5 136t63.5 97q43 43 96 62.5t127 19.5h266q145 0 228 -82q45 -45 62 -98t17 -135v-160q-104 129 -274 129q-88 0 -163 -33.5t-120 -93.5q-47 -61 -65.5 -148t-18.5 -227 q0 -145 19.5 -229t70.5 -147q47 -59 120 -92t159 -33q92 0 157.5 30.5t116.5 96.5v-113l142 -2v1018q0 213 -117 330q-115 115 -315 114h-303q-203 0 -316 -114q-115 -117 -115 -330v-688zM674 487q0 80 9 145.5t35.5 117t76 82t127.5 30.5t127 -29.5t75.5 -83t35.5 -118 t9 -144.5t-9 -145.5t-35.5 -116.5t-76 -81.5t-126.5 -30.5q-78 0 -127.5 30.5t-76 83t-35.5 117t-9 143.5z" />
<glyph unicode="A" horiz-adv-x="1251" d="M25 0h165l117 330h637l117 -330h166l-535 1458h-131zM354 465l275 770l270 -770h-545z" />
<glyph unicode="B" horiz-adv-x="1368" d="M211 0h567q199 0 316.5 104t117.5 299q0 127 -64.5 217.5t-172.5 129.5q94 35 154.5 120.5t60.5 198.5q0 180 -119 284.5t-311 104.5h-549v-1458zM367 139v535h397q135 0 214 -71.5t79 -194.5t-79 -196t-214 -73h-397zM367 813v506h381q129 0 207.5 -63.5t78.5 -188.5 t-78.5 -189.5t-207.5 -64.5h-381z" />
<glyph unicode="C" horiz-adv-x="1304" d="M156 729q0 -143 3 -219t15 -143.5t40 -122t79 -105.5q74 -74 170 -112.5t203 -38.5q197 0 333.5 115.5t171.5 318.5h-155q-29 -135 -122 -215t-228 -80q-72 0 -138.5 26.5t-113.5 75.5q-35 37 -55.5 76t-31 93.5t-13.5 129t-3 201.5t3 203t13.5 129t31 93t55.5 75 q47 49 113.5 75.5t138.5 26.5q135 0 226 -78.5t120 -216.5h159q-37 205 -172 319.5t-333 114.5q-106 0 -202.5 -38.5t-170.5 -112.5q-51 -51 -79 -105.5t-40 -121t-15 -143.5t-3 -220z" />
<glyph unicode="D" horiz-adv-x="1378" d="M211 0h500q233 0 368 135q92 92 118 233t26 377q0 225 -24.5 355.5t-119.5 222.5q-135 135 -368 135h-500v-1458zM367 139v1180h317q88 0 159.5 -24.5t127.5 -82.5q63 -66 79.5 -171.5t16.5 -295.5q0 -199 -17.5 -316.5t-78.5 -182.5q-55 -55 -127 -81t-160 -26h-317z " />
<glyph unicode="E" horiz-adv-x="1228" d="M211 0h905v139h-749v527h639v139h-639v514h749v139h-905v-1458z" />
<glyph unicode="F" horiz-adv-x="1187" d="M211 0h156v643h639v139h-639v537h749v139h-905v-1458z" />
<glyph unicode="G" horiz-adv-x="1331" d="M156 729q0 -143 3 -219t15 -143.5t40 -122t79 -105.5q74 -74 170 -112.5t203 -38.5q113 0 213 43t176 125q68 72 96.5 160.5t28.5 215.5v232h-514v-137h358v-111q0 -86 -19.5 -148.5t-62.5 -115.5q-49 -59 -121.5 -92t-154.5 -33q-72 0 -138.5 26.5t-113.5 75.5 q-35 37 -55.5 76t-31 93.5t-13.5 129t-3 201.5t3 203t13.5 128t31 92t55.5 75q49 49 114.5 76.5t137.5 27.5q137 0 230 -78.5t124 -218.5h156q-33 197 -169.5 316.5t-340.5 119.5q-221 0 -373 -151q-51 -51 -79 -105.5t-40 -121t-15 -143.5t-3 -220z" />
<glyph unicode="H" horiz-adv-x="1425" d="M211 0h156v666h692v-666h155v1458h-155v-653h-692v653h-156v-1458z" />
<glyph unicode="I" horiz-adv-x="577" d="M211 0h156v1458h-156v-1458z" />
<glyph unicode="J" horiz-adv-x="1026" d="M47 119q68 -68 148.5 -99.5t185.5 -31.5q203 0 329 123.5t126 330.5v1016h-156v-995q0 -162 -78 -249t-221 -87q-82 0 -132 24.5t-97 71.5z" />
<glyph unicode="K" horiz-adv-x="1331" d="M211 0h156v408l49 59l258 309l444 -776h185l-525 895l459 563h-190l-680 -837v837h-156v-1458z" />
<glyph unicode="L" horiz-adv-x="1173" d="M211 0h901v139h-745v1319h-156v-1458z" />
<glyph unicode="M" horiz-adv-x="1671" d="M211 0h156v1108l405 -879h133l400 879v-1108h155v1458h-155l-463 -1034l-475 1034h-156v-1458z" />
<glyph unicode="N" horiz-adv-x="1499" d="M211 0h156v1169l303 -458l471 -711h147v1458h-155v-1165l-312 469l-463 696h-147v-1458z" />
<glyph unicode="O" horiz-adv-x="1331" d="M156 729q0 -143 3 -219t15 -143.5t40 -122t79 -105.5q151 -151 370 -151h3q221 0 372 151q51 51 79 106.5t40 122t15.5 142.5t3.5 219t-3.5 219t-15.5 143.5t-39.5 122t-79.5 105.5q-151 151 -369 151h-3q-221 0 -373 -151q-51 -51 -79 -105.5t-40 -121t-15 -143.5 t-3 -220zM311 729q0 127 3 203t13.5 128t31 92t55.5 75q49 49 114.5 76.5t137.5 27.5t138 -27.5t114 -76.5q35 -37 55 -76t30.5 -92t13.5 -128t3 -202q0 -125 -3 -201.5t-13.5 -129t-31 -92.5t-54.5 -75q-47 -49 -114 -76.5t-138 -27.5q-72 0 -137.5 27.5t-114.5 76.5 q-35 37 -55.5 76t-31 92.5t-13.5 129t-3 200.5z" />
<glyph unicode="P" horiz-adv-x="1290" d="M211 0h156v600h387q201 0 325.5 117.5t124.5 312.5t-125 311.5t-325 116.5h-543v-1458zM367 739v580h372q141 0 225.5 -74t84.5 -215q0 -139 -84 -215t-226 -76h-372z" />
<glyph unicode="Q" horiz-adv-x="1329" d="M156 729q0 -143 3 -219t15 -143.5t40 -122t79 -105.5q151 -151 370 -151h3q180 0 313 102l162 -162l94 95l-160 159q37 47 57.5 98.5t29.5 113t11.5 133t2.5 202.5q0 143 -3.5 219t-15.5 143.5t-39.5 122t-79.5 105.5q-151 151 -369 151h-3q-221 0 -373 -151 q-51 -51 -79 -105.5t-40 -121t-15 -143.5t-3 -220zM311 729q0 127 3 203t13.5 128t31 92t55.5 75q49 49 114.5 76.5t137.5 27.5t138 -27.5t114 -76.5q35 -37 55 -76t30.5 -92t13.5 -128t3 -202q0 -188 -11.5 -279.5t-47.5 -152.5l-179 178l-94 -94l184 -184 q-92 -70 -206 -70q-72 0 -137.5 27.5t-114.5 76.5q-35 37 -55.5 76t-31 92.5t-13.5 129t-3 200.5z" />
<glyph unicode="R" horiz-adv-x="1343" d="M211 0h156v647h350l332 -647h182l-346 662q145 31 231 133t86 258q0 186 -119.5 295.5t-312.5 109.5h-559v-1458zM367 784v535h389q131 0 211 -69.5t80 -198.5t-80 -198t-211 -69h-389z" />
<glyph unicode="S" horiz-adv-x="1204" d="M86 180q102 -102 219 -147t281 -45q229 0 366.5 111.5t137.5 301.5q0 184 -123 289q-47 41 -106.5 64.5t-160.5 38.5l-77 12l-82 12q-57 10 -110.5 30.5t-86.5 49.5q-66 57 -65 168q0 123 81.5 196.5t225.5 73.5q113 0 191.5 -30.5t148.5 -94.5l100 101 q-94 86 -194.5 122.5t-239.5 36.5q-215 0 -341 -111.5t-126 -299.5q0 -174 111 -273q94 -82 268 -110l84 -12l86 -15q82 -12 118.5 -25.5t71.5 -43.5q70 -61 70 -183q0 -127 -92 -198.5t-252 -71.5q-125 0 -217 36t-180 124z" />
<glyph unicode="T" horiz-adv-x="1122" d="M61 1319h422v-1319h156v1319h422v139h-1000v-139z" />
<glyph unicode="U" horiz-adv-x="1398" d="M190 481q0 -106 37 -197t105.5 -158t163 -102.5t202.5 -35.5q109 0 203 35.5t163 102.5t106.5 156.5t37.5 198.5v977h-155v-964q0 -166 -97.5 -266.5t-257.5 -100.5t-256 100.5t-96 266.5v964h-156v-977z" />
<glyph unicode="V" horiz-adv-x="1118" d="M16 1458l480 -1458h127l479 1458h-164l-379 -1179l-379 1179h-164z" />
<glyph unicode="W" horiz-adv-x="1748" d="M33 1458l373 -1458h145l323 1167l324 -1167h145l373 1458h-166l-284 -1175l-322 1175h-139l-322 -1175l-284 1175h-166z" />
<glyph unicode="X" horiz-adv-x="1128" d="M31 0h176l356 612l355 -612h180l-451 748l420 710h-180l-324 -575l-323 575h-181l418 -710z" />
<glyph unicode="Y" horiz-adv-x="1052" d="M16 1458l435 -856v-602h155v602l430 856h-168l-340 -698l-344 698h-168z" />
<glyph unicode="Z" horiz-adv-x="1138" d="M117 0h905v139h-735l735 1188v131h-877v-139h701l-729 -1172v-147z" />
<glyph unicode="[" horiz-adv-x="641" d="M188 -152h363v132h-215v1499h215v131h-363v-1762z" />
<glyph unicode="\" horiz-adv-x="727" d="M0 1604l582 -1756h145l-582 1756h-145z" />
<glyph unicode="]" horiz-adv-x="641" d="M90 -25v-127h363v1762h-363v-127h221v-1508h-221z" />
<glyph unicode="^" horiz-adv-x="1099" d="M147 846h152l252 467l250 -467h151l-334 624h-135z" />
<glyph unicode="_" horiz-adv-x="1099" d="M0 -233v-105h1100v105h-1100z" />
<glyph unicode="`" horiz-adv-x="1024" d="M256 1530l221 -313h135l-180 313h-176z" />
<glyph unicode="a" horiz-adv-x="1077" d="M104 285q0 -61 19.5 -114.5t56.5 -90.5q47 -49 113.5 -70.5t171.5 -21.5q102 0 165.5 23.5t125.5 84.5v-96h147v684q0 336 -403 336q-127 0 -209 -33t-148 -117l101 -92q45 63 101 89t153 26q137 0 197.5 -54.5t60.5 -166.5v-97h-303q-166 0 -257.5 -77.5t-91.5 -212.5z M248 287q0 178 225 178h283v-109q0 -125 -51 -174q-43 -41 -95.5 -54t-130.5 -13q-231 0 -231 172z" />
<glyph unicode="b" horiz-adv-x="1116" d="M184 0h148v121q57 -76 125.5 -104.5t158.5 -28.5q76 0 140.5 23.5t105.5 64.5q70 70 96.5 179.5t26.5 248.5t-26.5 248.5t-96.5 179.5q-41 41 -105.5 64.5t-140.5 23.5q-90 0 -158.5 -27.5t-125.5 -101.5v567h-148v-1458zM332 504q0 82 10 149.5t37 120.5t78 84t129 31 t129 -31t77.5 -84t36 -119.5t9.5 -150.5t-9.5 -150.5t-36 -120t-77.5 -84t-129 -30.5t-129 30.5t-78 84t-37 121t-10 149.5z" />
<glyph unicode="c" horiz-adv-x="1003" d="M129 504q0 -250 124 -383t322 -133q106 0 180 32.5t152 116.5l-100 96q-57 -63 -108.5 -88.5t-123.5 -25.5q-154 0 -233 114q-35 49 -50.5 113t-15.5 158t15.5 157.5t50.5 112.5q80 115 233 115q72 0 123.5 -24.5t108.5 -88.5l100 94q-78 84 -151.5 117t-180.5 33 q-199 0 -322.5 -133t-123.5 -383z" />
<glyph unicode="d" horiz-adv-x="1116" d="M131 504q0 -139 26.5 -249t96.5 -179q41 -41 105.5 -64.5t140.5 -23.5q90 0 159.5 29.5t126.5 103.5v-121h146v1458h-148v-567q-57 74 -124.5 101.5t-159.5 27.5q-76 0 -140.5 -23.5t-105.5 -64.5q-70 -70 -96.5 -179.5t-26.5 -248.5zM279 504q0 82 10 149.5t36.5 120.5 t78 84t128.5 31q78 0 129.5 -31t78 -84t35.5 -119.5t9 -150.5t-9 -150.5t-35.5 -120t-78 -84t-129.5 -30.5t-129 30.5t-77.5 84t-36.5 121t-10 149.5z" />
<glyph unicode="e" horiz-adv-x="1085" d="M129 504q0 -260 116.5 -388t323.5 -128q125 0 206 36.5t163 118.5l-100 88q-61 -61 -120 -87.5t-145 -26.5q-143 0 -220 91t-77 257h680v67q0 225 -109.5 356.5t-303.5 131.5q-193 0 -303.5 -136t-110.5 -380zM276 575q4 63 9.5 95t21.5 73q29 70 92.5 111t143.5 41 t143.5 -41t91.5 -111q16 -41 21.5 -73t9.5 -95h-533z" />
<glyph unicode="f" horiz-adv-x="643" d="M88 889h129v-889h148v889h215v112h-215v187q0 72 32.5 109.5t102.5 37.5h80v127h-107q-123 0 -189.5 -75.5t-66.5 -194.5v-191h-129v-112z" />
<glyph unicode="g" horiz-adv-x="1112" d="M131 512q0 -139 26.5 -244.5t96.5 -175.5q41 -41 104.5 -65.5t139.5 -24.5q88 0 156.5 28.5t125.5 102.5v-158q0 -137 -68.5 -223t-207.5 -86q-82 0 -131 22.5t-111 78.5l-96 -95q82 -74 156.5 -104.5t185.5 -30.5q195 0 307.5 121t112.5 311v1039h-146v-119 q-57 76 -124.5 103.5t-157.5 27.5q-76 0 -140.5 -23.5t-105.5 -64.5q-70 -70 -96.5 -175.5t-26.5 -244.5zM279 512q0 80 9 145.5t35.5 117.5t78 83t128.5 31q80 0 130.5 -31t76 -84t34.5 -116.5t9 -145.5t-9 -146.5t-34.5 -116.5t-76 -83t-130.5 -31q-78 0 -129 31t-77.5 83 t-35.5 117.5t-9 145.5z" />
<glyph unicode="h" horiz-adv-x="1150" d="M184 0h148v623q0 129 67.5 197.5t184.5 68.5t181 -67.5t64 -198.5v-623h148v647q0 172 -96.5 272.5t-266.5 100.5q-174 0 -282 -123v561h-148v-1458z" />
<glyph unicode="i" horiz-adv-x="518" d="M176 1294h166v166h-166v-166zM184 0h148v1008h-148v-1008z" />
<glyph unicode="j" horiz-adv-x="518" d="M-31 -324v-129h107q127 0 191.5 75t64.5 196v1183h-148v-1177q0 -76 -29.5 -112t-105.5 -36h-80zM176 1294h166v166h-166v-166z" />
<glyph unicode="k" horiz-adv-x="1097" d="M184 0h148v291l196 225l320 -516h182l-401 623l342 385h-185l-454 -525v975h-148v-1458z" />
<glyph unicode="l" horiz-adv-x="608" d="M180 268q0 -121 64.5 -194.5t191.5 -73.5h107v127h-80q-74 0 -104.5 36t-30.5 111v1184h-148v-1190z" />
<glyph unicode="m" horiz-adv-x="1800" d="M184 0h148v621q0 129 67.5 198.5t184.5 69.5t182 -68.5t65 -199.5v-621h148v637q0 117 69.5 184.5t182.5 67.5q117 0 182.5 -68.5t65.5 -199.5v-621h147v645q0 176 -108 281q-98 94 -261 94q-213 0 -331 -168q-94 168 -310 168q-176 0 -284 -123v111h-148v-1008z" />
<glyph unicode="n" horiz-adv-x="1150" d="M184 0h148v621q0 129 66.5 198.5t183.5 69.5t182 -68.5t65 -199.5v-621h148v645q0 180 -105 281q-94 94 -258 94q-174 0 -282 -123v111h-148v-1008z" />
<glyph unicode="o" horiz-adv-x="1085" d="M131 504q0 -133 25.5 -231.5t97.5 -170.5q114 -114 286 -114h3q174 0 288 114q72 72 97.5 170.5t25.5 231.5t-25.5 231.5t-97.5 169.5q-115 115 -288 115q-174 0 -289 -115q-72 -72 -97.5 -170t-25.5 -231zM279 504q0 106 16 184t65 127q74 74 183 74q111 0 184 -74 q49 -49 64.5 -127t15.5 -184t-15.5 -184t-64.5 -127q-74 -74 -184 -74q-109 0 -183 74q-49 49 -65 126.5t-16 184.5z" />
<glyph unicode="p" horiz-adv-x="1116" d="M184 -451h148v570q57 -74 125.5 -102.5t158.5 -28.5q76 0 140.5 23.5t105.5 64.5q70 70 96.5 179.5t26.5 248.5t-26.5 248.5t-96.5 179.5q-41 41 -105.5 64.5t-140.5 23.5q-90 0 -158.5 -27.5t-125.5 -103.5v119h-148v-1459zM332 504q0 82 10 149.5t37 120.5t78 84 t129 31t129 -31t77.5 -84t36 -119.5t9.5 -150.5t-9.5 -150.5t-36 -120t-77.5 -84t-129 -30.5t-129 30.5t-78 84t-37 121t-10 149.5z" />
<glyph unicode="q" horiz-adv-x="1116" d="M131 504q0 -139 26.5 -249t96.5 -179q41 -41 105.5 -64.5t140.5 -23.5q90 0 158.5 28.5t125.5 102.5v-570h148v1459h-146v-119q-57 74 -125.5 102.5t-160.5 28.5q-76 0 -140.5 -23.5t-105.5 -64.5q-70 -70 -96.5 -179.5t-26.5 -248.5zM279 504q0 82 10 149.5t36.5 120.5 t78 84t128.5 31q78 0 129.5 -31t78 -84t35.5 -119.5t9 -150.5t-9 -150.5t-35.5 -120t-78 -84t-129.5 -30.5t-129 30.5t-77.5 84t-36.5 121t-10 149.5z" />
<glyph unicode="r" horiz-adv-x="862" d="M184 0h148v618q0 117 66.5 194t174.5 77q57 0 95.5 -16.5t79.5 -57.5l108 111q-51 51 -108.5 72.5t-133.5 21.5q-88 0 -164.5 -36t-117.5 -99v123h-148v-1008z" />
<glyph unicode="s" horiz-adv-x="1015" d="M88 133q82 -78 182.5 -111.5t231.5 -33.5q186 0 297.5 82t111.5 225q0 133 -76.5 196.5t-220.5 75.5l-79 8l-82 7q-92 8 -134.5 45t-42.5 102q0 78 58.5 122t167.5 44q164 0 268 -80l96 96q-66 53 -159 81t-203 28q-164 0 -267.5 -80t-103.5 -215q0 -246 301 -270l80 -6 l86 -9q168 -14 168 -147q0 -88 -70.5 -133t-197.5 -45q-98 0 -177 27.5t-137 88.5z" />
<glyph unicode="t" horiz-adv-x="679" d="M82 889h127v-619q0 -119 66.5 -194.5t191.5 -75.5h104v127h-77q-70 0 -104 38t-34 109v615h215v112h-215v316h-147v-316h-127v-112z" />
<glyph unicode="u" horiz-adv-x="1150" d="M174 365q0 -182 102 -283q94 -94 261 -94q176 0 284 125v-113h146v1008h-148v-621q0 -129 -67.5 -198.5t-184.5 -69.5t-181 68.5t-64 199.5v621h-148v-643z" />
<glyph unicode="v" horiz-adv-x="915" d="M23 1008l368 -1008h131l371 1008h-160l-276 -809l-275 809h-159z" />
<glyph unicode="w" horiz-adv-x="1482" d="M23 1008l319 -1008h137l262 782l265 -782h137l317 1008h-160l-229 -809l-266 809h-127l-264 -809l-232 809h-159z" />
<glyph unicode="x" horiz-adv-x="978" d="M68 0h178l246 391l241 -391h178l-342 514l328 494h-178l-227 -373l-232 373h-178l328 -494z" />
<glyph unicode="y" horiz-adv-x="915" d="M23 1008l362 -988l-72 -196q-25 -72 -58.5 -98.5t-107.5 -26.5h-45v-131h64q57 0 108.5 16.5t87.5 53.5q43 39 72 118l459 1252h-160l-274 -809l-277 809h-159z" />
<glyph unicode="z" horiz-adv-x="940" d="M102 0h732v131h-564l564 752v125h-701v-131h531l-562 -750v-127z" />
<glyph unicode="{" horiz-adv-x="724" d="M98 664h54q55 0 92 -37t37 -123v-391q0 -80 14 -125t47 -78t81 -47.5t126 -14.5h76v132h-47q-53 0 -80 6t-41 20q-16 16 -22.5 47t-6.5 86v385q0 82 -33 128t-96 77q63 31 96 77t33 128v385q0 57 6 87t23 46q14 14 40.5 20.5t80.5 6.5h47v131h-76q-78 0 -126 -14.5 t-81 -47.5t-47 -78t-14 -124v-392q0 -86 -37 -123t-92 -36h-54v-131z" />
<glyph unicode="|" horiz-adv-x="667" d="M260 -152h148v1762h-148v-1762z" />
<glyph unicode="}" horiz-adv-x="724" d="M98 -20v-132h78q78 0 126 14.5t81 47.5q35 33 48 78t13 125v391q0 86 37 123t92 37h52v131h-52q-55 0 -92 36q-37 37 -37 123v392q0 80 -13 125t-48 77q-33 33 -81 47.5t-126 14.5h-78v-131h49q53 0 79 -5.5t40 -21.5q16 -16 23.5 -47t7.5 -86v-385q0 -82 32.5 -128 t96.5 -77q-63 -31 -96 -77t-33 -128v-385q0 -55 -7 -85.5t-24 -47.5q-14 -16 -39.5 -21t-79.5 -5h-49z" />
<glyph unicode="~" horiz-adv-x="1103" d="M100 543l90 -92q57 57 92 74.5t80 17.5q37 0 70 -11.5t86 -35.5l4 -2q74 -33 121 -48.5t96 -15.5q72 0 126.5 27.5t138.5 111.5l-93 93q-57 -57 -92 -75t-80 -18q-37 0 -69.5 11.5t-85.5 35.5l-4 2q-74 33 -120 48.5t-95 15.5q-72 0 -126.5 -27.5t-138.5 -111.5z" />
<glyph unicode="&#xa1;" horiz-adv-x="647" d="M203 836h176v172h-176v-172zM207 -451h170l-23 1049h-127z" />
<glyph unicode="&#xa2;" horiz-adv-x="1019" d="M129 750q0 -217 99.5 -351.5t271.5 -158.5v-240h121v236q92 6 159.5 40.5t137.5 110.5l-101 94q-51 -57 -97 -82.5t-108 -29.5v761q61 -4 107.5 -29.5t97.5 -82.5l101 94q-70 76 -137.5 110.5t-159.5 41.5v194h-121v-198q-172 -25 -271.5 -159t-99.5 -351zM276 750 q0 94 16.5 157.5t51.5 112.5q63 88 164 106v-753q-100 18 -164 106q-35 49 -51.5 112.5t-16.5 158.5z" />
<glyph unicode="&#xa3;" horiz-adv-x="1122" d="M96 676h129v-676h791v139h-633v537h299v110h-299v209q0 162 78 249t221 87q82 0 131 -24.5t96 -71.5l107 104q-68 68 -149 99.5t-185 31.5q-203 0 -330 -123.5t-127 -330.5v-230h-129v-110z" />
<glyph unicode="&#xa4;" horiz-adv-x="1351" d="M160 133l94 -94l152 151q57 -43 126.5 -66.5t143.5 -23.5q147 0 268 90l154 -151l94 94l-152 152q43 57 66.5 126.5t23.5 143.5t-23.5 143.5t-66.5 126.5l152 150l-94 94l-154 -149q-117 88 -268 88q-154 0 -270 -88l-152 149l-94 -94l151 -150q-43 -57 -66.5 -126.5 t-23.5 -143.5t23.5 -143.5t66.5 -126.5zM356 555q0 66 25 123t69 101t102 68.5t124 24.5t123 -24.5t101 -68.5t68.5 -101t24.5 -123t-24.5 -124t-68.5 -102t-101.5 -68.5t-122.5 -24.5q-66 0 -124 24.5t-102 68.5t-69 102t-25 124z" />
<glyph unicode="&#xa5;" horiz-adv-x="1052" d="M16 1458l322 -637h-205v-110h262l54 -109v-106h-316v-113h316v-383h157v383h314v113h-314v106l53 109h261v110h-205l321 637h-166l-342 -698l-344 698h-168z" />
<glyph unicode="&#xa6;" horiz-adv-x="686" d="M260 -152h148v717h-148v-717zM260 893h148v717h-148v-717z" />
<glyph unicode="&#xa7;" horiz-adv-x="1140" d="M178 516q0 -141 74 -238.5t207 -136.5l159 -45q84 -25 132.5 -81t48.5 -128q0 -102 -60.5 -158.5t-167.5 -56.5q-104 0 -165.5 50.5t-71.5 144.5h-150q8 -158 118 -244t269 -86q162 0 269.5 97.5t107.5 254.5q0 109 -53 186t-145 109q90 45 151.5 132t61.5 204 q0 139 -74 237.5t-207 137.5l-160 45q-82 23 -127 71t-45 126q0 98 58.5 150t162.5 52q102 0 159.5 -46t66.5 -144h147q-6 147 -108.5 234t-264.5 87t-265 -93t-103 -242q0 -106 48 -173t142 -110q-92 -45 -153.5 -131t-61.5 -205zM328 518q0 61 16 105.5t51 83.5 q68 74 176 73q102 0 177 -73q37 -37 51 -81.5t14 -107.5t-16.5 -107t-48.5 -81q-68 -74 -177 -74t-176 74q-31 35 -49 81t-18 107z" />
<glyph unicode="&#xa8;" horiz-adv-x="1024" d="M221 1233h148v182h-148v-182zM655 1233h148v182h-148v-182z" />
<glyph unicode="&#xa9;" horiz-adv-x="1804" d="M160 729q0 -152 57 -287t159.5 -237.5t238 -159.5t286.5 -57q152 0 287 57t237.5 159.5t159.5 237.5t57 287t-57 287t-159.5 237.5t-237.5 159.5t-287 57t-287 -57t-237.5 -159.5t-159.5 -237.5t-57 -287zM281 729q0 127 48 242.5t133 203t198.5 136.5t240.5 49 t240.5 -49t199.5 -136.5t134.5 -203t48.5 -242.5t-48.5 -242.5t-134.5 -202.5t-199.5 -136.5t-240.5 -49.5t-240.5 49.5t-198.5 136.5t-133 202.5t-48 242.5zM547 729q0 -186 95 -301t269 -115q84 0 146 26t123 81l-74 74q-49 -43 -93 -60.5t-102 -17.5q-131 0 -190 86 t-59 227t59 228t190 87q57 0 100.5 -17t94.5 -62l74 73q-66 57 -125.5 83t-143.5 26q-174 0 -269 -116t-95 -302z" />
<glyph unicode="&#xaa;" horiz-adv-x="919" d="M115 879q0 -96 61 -162q39 -39 91 -56.5t134 -17.5q78 0 129.5 18.5t98.5 65.5v-74h119v543q0 133 -79 201.5t-239 68.5q-100 0 -166.5 -26.5t-120.5 -96.5l84 -75q37 51 81 70.5t120 19.5q106 0 152.5 -42t46.5 -130v-74h-236q-131 0 -203.5 -62.5t-72.5 -170.5z M236 883q0 137 172 137h219v-82q0 -100 -39 -137q-33 -33 -74 -42t-102 -9q-176 0 -176 133z" />
<glyph unicode="&#xab;" horiz-adv-x="1134" d="M82 549l430 -430v182l-246 248l246 246v184zM545 549l430 -430v182l-248 248l248 246v184z" />
<glyph unicode="&#xac;" d="M104 492h723v-281h138v418h-861v-137z" />
<glyph unicode="&#xad;" d="M106 483h857v138h-857v-138z" />
<glyph unicode="&#xae;" horiz-adv-x="1804" d="M160 729q0 -152 57 -287t159.5 -237.5t238 -159.5t286.5 -57q152 0 287 57t237.5 159.5t159.5 237.5t57 287t-57 287t-159.5 237.5t-237.5 159.5t-287 57t-287 -57t-237.5 -159.5t-159.5 -237.5t-57 -287zM279 729q0 129 48 245t134 203t199.5 136t240.5 49t240.5 -49 t201 -137.5t135.5 -203t48 -243.5t-48 -244.5t-135.5 -202.5t-201 -136.5t-240.5 -49.5t-240.5 49.5t-199.5 137.5t-134 202.5t-48 243.5zM659 324h113v331h123l186 -331h131l-194 346q80 25 127 81t47 142q0 102 -75 173t-181 71h-277v-813zM772 752v284h152 q68 0 110.5 -41t42.5 -102t-43 -101t-110 -40h-152z" />
<glyph unicode="&#xaf;" horiz-adv-x="1024" d="M203 1257h618v117h-618v-117z" />
<glyph unicode="&#xb0;" horiz-adv-x="948" d="M137 1141q0 -70 26.5 -131.5t73 -107.5t108 -71.5t130.5 -25.5q70 0 131.5 25.5t107.5 72.5t71.5 107.5t25.5 130.5t-25.5 131t-71.5 107t-107.5 72t-131.5 26t-131 -26t-107.5 -72t-73 -107.5t-26.5 -130.5zM262 1141q0 92 60.5 154.5t150.5 62.5t151.5 -62.5 t61.5 -154.5t-60.5 -154.5t-150.5 -62.5t-151.5 62.5t-61.5 154.5z" />
<glyph unicode="&#xb1;" d="M106 0h857v137h-857v-137zM106 592h361v-363h137v363h359v137h-359v358h-137v-358h-361v-137z" />
<glyph unicode="&#xb2;" horiz-adv-x="700" d="M98 584h504v106h-362l282 344q43 53 61.5 94t18.5 95q0 111 -69.5 177t-182.5 66q-111 0 -181.5 -66.5t-70.5 -176.5h119q0 70 38 103.5t95 33.5q61 0 97 -37t36 -100q0 -59 -47 -119l-338 -414v-106z" />
<glyph unicode="&#xb3;" horiz-adv-x="729" d="M98 817q4 -119 80 -181.5t189 -62.5q115 0 189.5 67.5t74.5 188.5q0 80 -32 130.5t-93 74.5q111 51 110 189q0 109 -70.5 176t-180.5 67q-104 0 -176 -63.5t-78 -171.5h116q4 59 41 94t97 35q59 0 97 -37t38 -102q0 -66 -35 -103t-105 -37h-18v-102h18q154 0 154 -150 q0 -70 -41 -109.5t-106 -39.5q-61 0 -104.5 35t-45.5 102h-119z" />
<glyph unicode="&#xb4;" horiz-adv-x="1024" d="M412 1217h135l221 313h-176z" />
<glyph unicode="&#xb5;" horiz-adv-x="1148" d="M170 -451h147v514q82 -76 218 -75q174 0 282 125v-113h148v1008h-148v-621q0 -129 -67.5 -198.5t-184.5 -69.5t-182.5 68.5t-65.5 199.5v621h-147v-1459z" />
<glyph unicode="&#xb6;" horiz-adv-x="1234" d="M86 1061q0 -76 28.5 -146.5t82 -127t129 -88t163.5 -31.5v-1119h148v1770h240v-1770h147v1909h-494q-205 0 -324.5 -113.5t-119.5 -283.5z" />
<glyph unicode="&#xb7;" horiz-adv-x="552" d="M180 457h193v192h-193v-192z" />
<glyph unicode="&#xb8;" horiz-adv-x="1024" d="M358 -442h162l121 305h-137z" />
<glyph unicode="&#xb9;" horiz-adv-x="534" d="M88 1178l170 149v-743h117v874h-117l-170 -145v-135z" />
<glyph unicode="&#xba;" horiz-adv-x="931" d="M137 1055q0 -106 20.5 -183t78.5 -137q90 -90 229 -90t229 90q57 59 78 136.5t21 183.5q0 104 -20.5 183t-78.5 136q-92 92 -229 92t-229 -92q-57 -57 -78 -136t-21 -183zM260 1055q0 86 11.5 145.5t50.5 97.5q57 57 143 58q86 0 143 -58q39 -39 51.5 -100t12.5 -143 t-12.5 -142.5t-51.5 -99.5q-59 -59 -143 -59t-143 59q-39 39 -50.5 98.5t-11.5 143.5z" />
<glyph unicode="&#xbb;" horiz-adv-x="1134" d="M160 119l430 430l-430 430v-184l248 -246l-248 -248v-182zM623 119l430 430l-430 430v-184l245 -246l-245 -248v-182z" />
<glyph unicode="&#xbc;" horiz-adv-x="1591" d="M88 1178l170 149v-743h117v874h-117l-170 -145v-135zM354 0h123l682 1458h-123zM946 131h352v-131h115v131h96v109h-96v215h-115v-215h-223l307 634h-127l-309 -634v-109z" />
<glyph unicode="&#xbd;" horiz-adv-x="1617" d="M88 1178l170 149v-743h117v874h-117l-170 -145v-135zM330 0h123l682 1458h-123zM1016 0h504v106h-361l281 345q43 53 61.5 94t18.5 94q0 111 -70 177.5t-182 66.5q-111 0 -181.5 -66.5t-70.5 -177.5h119q0 70 37.5 103.5t95.5 33.5q61 0 97 -37t36 -100q0 -59 -47 -119 l-338 -414v-106z" />
<glyph unicode="&#xbe;" horiz-adv-x="1683" d="M98 817q4 -119 80 -181.5t189 -62.5q115 0 189.5 67.5t74.5 188.5q0 80 -32 130.5t-93 74.5q111 51 110 189q0 109 -70.5 176t-180.5 67q-104 0 -176 -63.5t-78 -171.5h116q4 59 41 94t97 35q59 0 97 -37t38 -102q0 -66 -35 -103t-105 -37h-18v-102h18q154 0 154 -150 q0 -70 -41 -109.5t-106 -39.5q-61 0 -104.5 35t-45.5 102h-119zM461 0h123l684 1458h-123zM1038 131h353v-131h114v131h97v109h-97v215h-114v-215h-226l310 634h-127l-310 -634v-109z" />
<glyph unicode="&#xbf;" horiz-adv-x="1017" d="M94 -88q0 -80 30 -149.5t82 -120t122.5 -78t150.5 -27.5q82 0 152.5 28.5t122 80t80 120t28.5 146.5h-147q0 -100 -64.5 -171t-171.5 -71q-102 0 -169.5 70t-67.5 172q0 47 16 85t51 89l166 238q35 49 50.5 92t15.5 100v84h-148v-82q0 -27 -9 -59.5t-28 -59.5l-168 -241 q-47 -70 -70.5 -125.5t-23.5 -120.5zM379 836h174v172h-174v-172z" />
<glyph unicode="&#xc0;" horiz-adv-x="1251" d="M25 0h165l117 330h637l117 -330h166l-535 1458h-131zM354 465l275 770l270 -770h-545zM362 1913l222 -314h135l-180 314h-177z" />
<glyph unicode="&#xc1;" horiz-adv-x="1251" d="M25 0h165l117 330h637l117 -330h166l-535 1458h-131zM354 465l275 770l270 -770h-545zM518 1599h135l221 314h-176z" />
<glyph unicode="&#xc2;" horiz-adv-x="1251" d="M25 0h165l117 330h637l117 -330h166l-535 1458h-131zM293 1599h141l184 213l185 -213h141l-256 314h-139zM354 465l275 770l270 -770h-545z" />
<glyph unicode="&#xc3;" horiz-adv-x="1251" d="M25 0h165l117 330h637l117 -330h166l-535 1458h-131zM289 1726l76 -73q43 43 67.5 54t52.5 11q27 0 50.5 -10t62.5 -33h2q43 -25 74 -36t71 -11q43 0 87.5 21t107.5 84l-76 73q-41 -41 -66.5 -53t-54.5 -12q-49 0 -114 41q-45 27 -75 38t-71 11q-45 0 -88 -20.5 t-106 -84.5zM354 465l275 770l270 -770h-545z" />
<glyph unicode="&#xc4;" horiz-adv-x="1251" d="M25 0h165l117 330h637l117 -330h166l-535 1458h-131zM328 1616h147v182h-147v-182zM354 465l275 770l270 -770h-545zM762 1616h147v182h-147v-182z" />
<glyph unicode="&#xc5;" horiz-adv-x="1251" d="M25 0h165l117 330h637l117 -330h166l-535 1458h-131zM354 465l275 770l270 -770h-545zM377 1776q0 -100 70.5 -172t170.5 -72t171 72t71 172q0 102 -70.5 171.5t-171.5 69.5q-100 0 -170.5 -70.5t-70.5 -170.5zM477 1776q0 59 42 99t99 40q59 0 100.5 -40t41.5 -99 t-41 -100.5t-101 -41.5q-59 0 -100 41t-41 101z" />
<glyph unicode="&#xc6;" horiz-adv-x="1888" d="M16 0h170l181 346h505v-346h904v139h-750v523h639v139h-639v518h750v139h-990zM434 481l438 838v-838h-438z" />
<glyph unicode="&#xc7;" horiz-adv-x="1304" d="M156 729q0 -143 3 -219t15 -143.5t40 -122t79 -105.5q74 -74 170 -112.5t203 -38.5q197 0 333.5 115.5t171.5 318.5h-155q-29 -135 -122 -215t-228 -80q-72 0 -138.5 26.5t-113.5 75.5q-35 37 -55.5 76t-31 93.5t-13.5 129t-3 201.5t3 203t13.5 129t31 93t55.5 75 q47 49 113.5 75.5t138.5 26.5q135 0 226 -78.5t120 -216.5h159q-37 205 -172 319.5t-333 114.5q-106 0 -202.5 -38.5t-170.5 -112.5q-51 -51 -79 -105.5t-40 -121t-15 -143.5t-3 -220zM475 -442h162l121 305h-137z" />
<glyph unicode="&#xc8;" horiz-adv-x="1228" d="M211 0h905v139h-749v527h639v139h-639v514h749v139h-905v-1458zM385 1913l221 -314h135l-180 314h-176z" />
<glyph unicode="&#xc9;" horiz-adv-x="1228" d="M211 0h905v139h-749v527h639v139h-639v514h749v139h-905v-1458zM541 1599h135l221 314h-176z" />
<glyph unicode="&#xca;" horiz-adv-x="1228" d="M211 0h905v139h-749v527h639v139h-639v514h749v139h-905v-1458zM315 1599h142l184 213l184 -213h142l-256 314h-140z" />
<glyph unicode="&#xcb;" horiz-adv-x="1228" d="M211 0h905v139h-749v527h639v139h-639v514h749v139h-905v-1458zM350 1616h148v182h-148v-182zM784 1616h148v182h-148v-182z" />
<glyph unicode="&#xcc;" horiz-adv-x="577" d="M12 1913h176l181 -314h-136zM211 0v1458h156v-1458h-156z" />
<glyph unicode="&#xcd;" horiz-adv-x="577" d="M211 0v1458h156v-1458h-156zM211 1599l180 314h176l-221 -314h-135z" />
<glyph unicode="&#xce;" horiz-adv-x="577" d="M-41 1599h141l185 213l184 -213h141l-256 314h-139zM211 0h156v1458h-156v-1458z" />
<glyph unicode="&#xcf;" horiz-adv-x="577" d="M2 1616v182h148v-182h-148zM211 0v1458h156v-1458h-156zM436 1616v182h148v-182h-148z" />
<glyph unicode="&#xd0;" horiz-adv-x="1406" d="M80 676h160v-676h489q143 0 253 58.5t179 156.5q31 43 48.5 82t26.5 91t12 131t3 210t-2 204t-11 123t-26.5 91t-50.5 92q-143 219 -420 219h-501v-661h-160v-121zM397 137v539h330v121h-330v524h316q104 0 178 -35t131 -112q27 -37 41 -73t21.5 -84t9.5 -112.5t2 -183.5 q0 -113 -2 -179.5t-7.5 -109.5t-18.5 -75.5t-36 -67.5q-102 -152 -319 -152h-316z" />
<glyph unicode="&#xd1;" horiz-adv-x="1499" d="M211 0h156v1169l303 -458l471 -711h147v1458h-155v-1165l-312 469l-463 696h-147v-1458zM420 1726l76 -73q43 43 67.5 54t52.5 11q27 0 50.5 -10t62.5 -33h2q43 -25 74 -36t72 -11q43 0 87 21t107 84l-76 73q-41 -41 -66.5 -53t-54.5 -12q-49 0 -114 41q-45 27 -75 38 t-71 11q-45 0 -88 -20.5t-106 -84.5z" />
<glyph unicode="&#xd2;" horiz-adv-x="1331" d="M156 729q0 -143 3 -219t15 -143.5t40 -122t79 -105.5q152 -152 373 -151q221 0 372 151q51 51 79 106.5t40 122t15.5 142.5t3.5 219t-3.5 219t-15.5 143.5t-39.5 122t-79.5 105.5q-152 152 -372 151q-221 0 -373 -151q-51 -51 -79 -105.5t-40 -121t-15 -143.5t-3 -220z M311 729q0 127 3 203t13.5 128t31 92t55.5 75q49 49 114.5 76.5t137.5 27.5t138 -27.5t114 -76.5q35 -37 55 -76t30.5 -92t13.5 -128t3 -202q0 -125 -3 -201.5t-13.5 -129t-31 -92.5t-54.5 -75q-47 -49 -114 -76.5t-138 -27.5q-72 0 -137.5 27.5t-114.5 76.5 q-35 37 -55.5 76t-31 92.5t-13.5 129t-3 200.5zM410 1913l221 -314h135l-180 314h-176z" />
<glyph unicode="&#xd3;" horiz-adv-x="1331" d="M156 729q0 -143 3 -219t15 -143.5t40 -122t79 -105.5q152 -152 373 -151q221 0 372 151q51 51 79 106.5t40 122t15.5 142.5t3.5 219t-3.5 219t-15.5 143.5t-39.5 122t-79.5 105.5q-152 152 -372 151q-221 0 -373 -151q-51 -51 -79 -105.5t-40 -121t-15 -143.5t-3 -220z M311 729q0 127 3 203t13.5 128t31 92t55.5 75q49 49 114.5 76.5t137.5 27.5t138 -27.5t114 -76.5q35 -37 55 -76t30.5 -92t13.5 -128t3 -202q0 -125 -3 -201.5t-13.5 -129t-31 -92.5t-54.5 -75q-47 -49 -114 -76.5t-138 -27.5q-72 0 -137.5 27.5t-114.5 76.5 q-35 37 -55.5 76t-31 92.5t-13.5 129t-3 200.5zM565 1599h135l222 314h-177z" />
<glyph unicode="&#xd4;" horiz-adv-x="1331" d="M156 729q0 -143 3 -219t15 -143.5t40 -122t79 -105.5q152 -152 373 -151q221 0 372 151q51 51 79 106.5t40 122t15.5 142.5t3.5 219t-3.5 219t-15.5 143.5t-39.5 122t-79.5 105.5q-152 152 -372 151q-221 0 -373 -151q-51 -51 -79 -105.5t-40 -121t-15 -143.5t-3 -220z M311 729q0 127 3 203t13.5 128t31 92t55.5 75q49 49 114.5 76.5t137.5 27.5t138 -27.5t114 -76.5q35 -37 55 -76t30.5 -92t13.5 -128t3 -202q0 -125 -3 -201.5t-13.5 -129t-31 -92.5t-54.5 -75q-47 -49 -114 -76.5t-138 -27.5q-72 0 -137.5 27.5t-114.5 76.5 q-35 37 -55.5 76t-31 92.5t-13.5 129t-3 200.5zM340 1599h141l185 213l184 -213h141l-256 314h-139z" />
<glyph unicode="&#xd5;" horiz-adv-x="1331" d="M156 729q0 -143 3 -219t15 -143.5t40 -122t79 -105.5q152 -152 373 -151q221 0 372 151q51 51 79 106.5t40 122t15.5 142.5t3.5 219t-3.5 219t-15.5 143.5t-39.5 122t-79.5 105.5q-152 152 -372 151q-221 0 -373 -151q-51 -51 -79 -105.5t-40 -121t-15 -143.5t-3 -220z M311 729q0 127 3 203t13.5 128t31 92t55.5 75q49 49 114.5 76.5t137.5 27.5t138 -27.5t114 -76.5q35 -37 55 -76t30.5 -92t13.5 -128t3 -202q0 -125 -3 -201.5t-13.5 -129t-31 -92.5t-54.5 -75q-47 -49 -114 -76.5t-138 -27.5q-72 0 -137.5 27.5t-114.5 76.5 q-35 37 -55.5 76t-31 92.5t-13.5 129t-3 200.5zM336 1726l76 -73q43 43 67.5 54t52.5 11q27 0 50.5 -10t62.5 -33h2q43 -25 74 -36t72 -11q43 0 87 21t107 84l-76 73q-41 -41 -66.5 -53t-53.5 -12q-49 0 -115 41q-45 27 -75 38t-71 11q-45 0 -88 -20.5t-106 -84.5z" />
<glyph unicode="&#xd6;" horiz-adv-x="1331" d="M156 729q0 -143 3 -219t15 -143.5t40 -122t79 -105.5q152 -152 373 -151q221 0 372 151q51 51 79 106.5t40 122t15.5 142.5t3.5 219t-3.5 219t-15.5 143.5t-39.5 122t-79.5 105.5q-152 152 -372 151q-221 0 -373 -151q-51 -51 -79 -105.5t-40 -121t-15 -143.5t-3 -220z M311 729q0 127 3 203t13.5 128t31 92t55.5 75q49 49 114.5 76.5t137.5 27.5t138 -27.5t114 -76.5q35 -37 55 -76t30.5 -92t13.5 -128t3 -202q0 -125 -3 -201.5t-13.5 -129t-31 -92.5t-54.5 -75q-47 -49 -114 -76.5t-138 -27.5q-72 0 -137.5 27.5t-114.5 76.5 q-35 37 -55.5 76t-31 92.5t-13.5 129t-3 200.5zM375 1616h147v182h-147v-182zM809 1616h147v182h-147v-182z" />
<glyph unicode="&#xd7;" d="M133 244l92 -92l310 309l309 -309l92 92l-311 309l311 309l-92 92l-309 -311l-310 311l-92 -92l309 -309z" />
<glyph unicode="&#xd8;" horiz-adv-x="1335" d="M156 729q0 -143 3 -219t15 -143.5t40 -122t79 -105.5l16 -16l-102 -213h133l68 143q115 -66 258 -65q221 0 372 151q51 51 79 106.5t40 122t15.5 142.5t3.5 219t-3.5 219t-15.5 143.5t-39.5 122t-79.5 105.5l-6 6q-6 8 -10 10l102 213h-133l-69 -141q-113 63 -256 63 q-221 0 -373 -151q-51 -51 -79 -105.5t-40 -121t-15 -143.5t-3 -220zM311 729q0 127 3 203t13.5 128t31 92t55.5 75q49 49 114.5 76.5t137.5 27.5q104 0 196 -59l-479 -1004q-45 61 -58.5 154.5t-13.5 306.5zM469 186l479 1004q45 -61 57.5 -153.5t12.5 -307.5 q0 -129 -3 -202.5t-12.5 -127t-30 -92.5t-54.5 -76q-47 -49 -114 -76.5t-138 -27.5q-104 0 -197 59z" />
<glyph unicode="&#xd9;" horiz-adv-x="1396" d="M190 481q0 -106 37 -197t105.5 -158t163 -102.5t202.5 -35.5q109 0 203 35.5t163 102.5t106.5 156.5t37.5 198.5v977h-155v-964q0 -166 -97.5 -266.5t-257.5 -100.5t-256 100.5t-96 266.5v964h-156v-977zM442 1913l222 -314h135l-181 314h-176z" />
<glyph unicode="&#xda;" horiz-adv-x="1396" d="M190 481q0 -106 37 -197t105.5 -158t163 -102.5t202.5 -35.5q109 0 203 35.5t163 102.5t106.5 156.5t37.5 198.5v977h-155v-964q0 -166 -97.5 -266.5t-257.5 -100.5t-256 100.5t-96 266.5v964h-156v-977zM598 1599h135l221 314h-176z" />
<glyph unicode="&#xdb;" horiz-adv-x="1396" d="M190 481q0 -106 37 -197t105.5 -158t163 -102.5t202.5 -35.5q109 0 203 35.5t163 102.5t106.5 156.5t37.5 198.5v977h-155v-964q0 -166 -97.5 -266.5t-257.5 -100.5t-256 100.5t-96 266.5v964h-156v-977zM373 1599h141l184 213l185 -213h141l-256 314h-139z" />
<glyph unicode="&#xdc;" horiz-adv-x="1396" d="M190 481q0 -106 37 -197t105.5 -158t163 -102.5t202.5 -35.5q109 0 203 35.5t163 102.5t106.5 156.5t37.5 198.5v977h-155v-964q0 -166 -97.5 -266.5t-257.5 -100.5t-256 100.5t-96 266.5v964h-156v-977zM408 1616h147v182h-147v-182zM842 1616h147v182h-147v-182z" />
<glyph unicode="&#xdd;" horiz-adv-x="1054" d="M16 1458l435 -856v-602h155v602l430 856h-168l-340 -698l-344 698h-168zM426 1599h135l221 314h-176z" />
<glyph unicode="&#xde;" horiz-adv-x="1314" d="M211 0h156v307h387q201 0 325.5 116.5t124.5 311.5t-125 312.5t-325 117.5h-387v293h-156v-1458zM367 446v578h372q141 0 225.5 -74t84.5 -215t-84 -215t-226 -74h-372z" />
<glyph unicode="&#xdf;" horiz-adv-x="1138" d="M184 0h150v1067q0 129 61.5 202.5t192.5 73.5t192 -59q29 -27 46.5 -67.5t17.5 -86.5q0 -86 -50.5 -136t-129.5 -50h-74v-123h90q78 0 121 -43t43 -127v-346q0 -96 -51 -137q-27 -23 -52.5 -32t-68.5 -9h-82v-127h110q70 0 120 17.5t91 56.5q80 74 80 215v354 q0 98 -27.5 152.5t-101.5 93.5q129 84 129 244q0 168 -110.5 254t-284.5 86q-190 0 -301 -104.5t-111 -295.5v-1073z" />
<glyph unicode="&#xe0;" horiz-adv-x="1077" d="M104 285q0 -61 19.5 -114.5t56.5 -90.5q47 -49 113.5 -70.5t171.5 -21.5q102 0 165.5 23.5t125.5 84.5v-96h147v684q0 336 -403 336q-127 0 -209 -33t-148 -117l101 -92q45 63 101 89t153 26q137 0 197.5 -54.5t60.5 -166.5v-97h-303q-166 0 -257.5 -77.5t-91.5 -212.5z M248 287q0 178 225 178h283v-109q0 -125 -51 -174q-43 -41 -95.5 -54t-130.5 -13q-231 0 -231 172zM260 1530l221 -313h135l-180 313h-176z" />
<glyph unicode="&#xe1;" horiz-adv-x="1077" d="M104 285q0 -61 19.5 -114.5t56.5 -90.5q47 -49 113.5 -70.5t171.5 -21.5q102 0 165.5 23.5t125.5 84.5v-96h147v684q0 336 -403 336q-127 0 -209 -33t-148 -117l101 -92q45 63 101 89t153 26q137 0 197.5 -54.5t60.5 -166.5v-97h-303q-166 0 -257.5 -77.5t-91.5 -212.5z M248 287q0 178 225 178h283v-109q0 -125 -51 -174q-43 -41 -95.5 -54t-130.5 -13q-231 0 -231 172zM416 1217h135l221 313h-176z" />
<glyph unicode="&#xe2;" horiz-adv-x="1077" d="M104 285q0 -61 19.5 -114.5t56.5 -90.5q47 -49 113.5 -70.5t171.5 -21.5q102 0 165.5 23.5t125.5 84.5v-96h147v684q0 336 -403 336q-127 0 -209 -33t-148 -117l101 -92q45 63 101 89t153 26q137 0 197.5 -54.5t60.5 -166.5v-97h-303q-166 0 -257.5 -77.5t-91.5 -212.5z M190 1217h142l184 213l184 -213h142l-256 313h-140zM248 287q0 178 225 178h283v-109q0 -125 -51 -174q-43 -41 -95.5 -54t-130.5 -13q-231 0 -231 172z" />
<glyph unicode="&#xe3;" horiz-adv-x="1077" d="M104 285q0 -61 19.5 -114.5t56.5 -90.5q47 -49 113.5 -70.5t171.5 -21.5q102 0 165.5 23.5t125.5 84.5v-96h147v684q0 336 -403 336q-127 0 -209 -33t-148 -117l101 -92q45 63 101 89t153 26q137 0 197.5 -54.5t60.5 -166.5v-97h-303q-166 0 -257.5 -77.5t-91.5 -212.5z M186 1343l76 -73q43 43 67.5 54t53.5 11q27 0 50.5 -10t62.5 -33h2q43 -25 73.5 -36t71.5 -11q43 0 87.5 21t107.5 84l-76 73q-41 -41 -66.5 -53t-54.5 -12q-49 0 -115 41q-45 27 -74.5 38t-70.5 11q-45 0 -88 -20.5t-107 -84.5zM248 287q0 178 225 178h283v-109 q0 -125 -51 -174q-43 -41 -95.5 -54t-130.5 -13q-231 0 -231 172z" />
<glyph unicode="&#xe4;" horiz-adv-x="1077" d="M104 285q0 -61 19.5 -114.5t56.5 -90.5q47 -49 113.5 -70.5t171.5 -21.5q102 0 165.5 23.5t125.5 84.5v-96h147v684q0 336 -403 336q-127 0 -209 -33t-148 -117l101 -92q45 63 101 89t153 26q137 0 197.5 -54.5t60.5 -166.5v-97h-303q-166 0 -257.5 -77.5t-91.5 -212.5z M225 1233h148v182h-148v-182zM248 287q0 178 225 178h283v-109q0 -125 -51 -174q-43 -41 -95.5 -54t-130.5 -13q-231 0 -231 172zM659 1233h148v182h-148v-182z" />
<glyph unicode="&#xe5;" horiz-adv-x="1077" d="M104 285q0 -61 19.5 -114.5t56.5 -90.5q47 -49 113.5 -70.5t171.5 -21.5q102 0 165.5 23.5t125.5 84.5v-96h147v684q0 336 -403 336q-127 0 -209 -33t-148 -117l101 -92q45 63 101 89t153 26q137 0 197.5 -54.5t60.5 -166.5v-97h-303q-166 0 -257.5 -77.5t-91.5 -212.5z M248 287q0 178 225 178h283v-109q0 -125 -51 -174q-43 -41 -95.5 -54t-130.5 -13q-231 0 -231 172zM274 1407q0 -100 71 -172t171 -72t171 72t71 172q0 102 -71 172t-171 70t-171 -71t-71 -171zM375 1407q0 59 42 99t99 40q59 0 100 -40t41 -99t-41 -100t-100 -41t-100 41 t-41 100z" />
<glyph unicode="&#xe6;" horiz-adv-x="1710" d="M104 285q0 -61 19.5 -114.5t56.5 -90.5q47 -49 113.5 -70.5t171.5 -21.5q133 0 217 39t152 135q53 -88 145 -131t213 -43q125 0 208 36.5t165 118.5l-103 88q-61 -61 -119.5 -87.5t-142.5 -26.5q-143 0 -221 91t-78 257h682v67q0 225 -109.5 356.5t-304.5 131.5 q-209 0 -315 -158q-84 158 -354 158q-127 0 -209 -33t-148 -117l101 -92q45 63 101 89t153 26q137 0 197.5 -54.5t60.5 -166.5v-97h-303q-166 0 -257.5 -77.5t-91.5 -212.5zM248 287q0 178 225 178h283v-109q0 -125 -51 -174q-43 -41 -95.5 -54t-130.5 -13q-231 0 -231 172z M901 575q4 61 10.5 94t22.5 74q29 70 92.5 111t142.5 41q80 0 143.5 -41t92.5 -111q16 -41 21.5 -73t9.5 -95h-535z" />
<glyph unicode="&#xe7;" horiz-adv-x="1011" d="M129 504q0 -250 124 -383t322 -133q106 0 180 32.5t152 116.5l-100 96q-57 -63 -108.5 -88.5t-123.5 -25.5q-154 0 -233 114q-35 49 -50.5 113t-15.5 158t15.5 157.5t50.5 112.5q80 115 233 115q72 0 123.5 -24.5t108.5 -88.5l100 94q-78 84 -151.5 117t-180.5 33 q-199 0 -322.5 -133t-123.5 -383zM358 -442h162l121 305h-137z" />
<glyph unicode="&#xe8;" horiz-adv-x="1085" d="M129 504q0 -260 116.5 -388t323.5 -128q125 0 206 36.5t163 118.5l-100 88q-61 -61 -120 -87.5t-145 -26.5q-143 0 -220 91t-77 257h680v67q0 225 -109.5 356.5t-303.5 131.5q-193 0 -303.5 -136t-110.5 -380zM276 575q4 63 9.5 95t21.5 73q29 70 92.5 111t143.5 41 t143.5 -41t91.5 -111q16 -41 21.5 -73t9.5 -95h-533zM293 1530l221 -313h135l-180 313h-176z" />
<glyph unicode="&#xe9;" horiz-adv-x="1085" d="M129 504q0 -260 116.5 -388t323.5 -128q125 0 206 36.5t163 118.5l-100 88q-61 -61 -120 -87.5t-145 -26.5q-143 0 -220 91t-77 257h680v67q0 225 -109.5 356.5t-303.5 131.5q-193 0 -303.5 -136t-110.5 -380zM276 575q4 63 9.5 95t21.5 73q29 70 92.5 111t143.5 41 t143.5 -41t91.5 -111q16 -41 21.5 -73t9.5 -95h-533zM449 1217h135l221 313h-176z" />
<glyph unicode="&#xea;" horiz-adv-x="1085" d="M129 504q0 -260 116.5 -388t323.5 -128q125 0 206 36.5t163 118.5l-100 88q-61 -61 -120 -87.5t-145 -26.5q-143 0 -220 91t-77 257h680v67q0 225 -109.5 356.5t-303.5 131.5q-193 0 -303.5 -136t-110.5 -380zM223 1217h142l184 213l184 -213h141l-256 313h-139zM276 575 q4 63 9.5 95t21.5 73q29 70 92.5 111t143.5 41t143.5 -41t91.5 -111q16 -41 21.5 -73t9.5 -95h-533z" />
<glyph unicode="&#xeb;" horiz-adv-x="1085" d="M129 504q0 -260 116.5 -388t323.5 -128q125 0 206 36.5t163 118.5l-100 88q-61 -61 -120 -87.5t-145 -26.5q-143 0 -220 91t-77 257h680v67q0 225 -109.5 356.5t-303.5 131.5q-193 0 -303.5 -136t-110.5 -380zM258 1233h148v182h-148v-182zM276 575q4 63 9.5 95t21.5 73 q29 70 92.5 111t143.5 41t143.5 -41t91.5 -111q16 -41 21.5 -73t9.5 -95h-533zM692 1233h148v182h-148v-182z" />
<glyph unicode="&#xec;" horiz-adv-x="518" d="M-10 1530h176l180 -313h-135zM184 0v1008h148v-1008h-148z" />
<glyph unicode="&#xed;" horiz-adv-x="518" d="M184 0v1008h148v-1008h-148zM184 1217l181 313h176l-222 -313h-135z" />
<glyph unicode="&#xee;" horiz-adv-x="518" d="M-61 1217l256 313h139l256 -313h-141l-185 213l-184 -213h-141zM184 0v1008h148v-1008h-148z" />
<glyph unicode="&#xef;" horiz-adv-x="518" d="M-33 1233v182h148v-182h-148zM184 0v1008h148v-1008h-148zM401 1233v182h148v-182h-148z" />
<glyph unicode="&#xf0;" horiz-adv-x="1085" d="M135 500q0 -133 25.5 -231.5t95.5 -168.5q109 -113 287 -112q178 0 286 112q72 72 97.5 169.5t25.5 230.5q0 72 -5 125t-18.5 101t-39 105.5t-66.5 129.5l-129 227h111v106h-168l-96 168h-154l96 -168h-180v-106h238l118 -203q-27 12 -61.5 16.5t-91.5 4.5 q-156 -10 -250 -107q-70 -70 -95.5 -168t-25.5 -231zM283 500q0 106 15 183t64 126q74 74 181 74q109 0 182 -74q49 -49 64.5 -126t15.5 -183t-15.5 -182t-64.5 -125q-74 -74 -182 -74q-106 0 -181 74q-49 49 -64 124.5t-15 182.5z" />
<glyph unicode="&#xf1;" horiz-adv-x="1150" d="M184 0h148v621q0 129 66.5 198.5t183.5 69.5t182 -68.5t65 -199.5v-621h148v645q0 180 -105 281q-94 94 -258 94q-174 0 -282 -123v111h-148v-1008zM254 1343l76 -73q43 43 67.5 54t53.5 11q27 0 50 -10t62 -33h2q43 -25 74 -36t72 -11q43 0 87 21t107 84l-76 73 q-41 -41 -66.5 -53t-53.5 -12q-49 0 -115 41q-45 27 -75 38t-70 11q-45 0 -88.5 -20.5t-106.5 -84.5z" />
<glyph unicode="&#xf2;" horiz-adv-x="1085" d="M131 504q0 -133 25.5 -231.5t97.5 -170.5q115 -115 289 -114q174 0 288 114q72 72 97.5 170.5t25.5 231.5t-25.5 231.5t-97.5 169.5q-115 115 -288 115q-174 0 -289 -115q-72 -72 -97.5 -170t-25.5 -231zM266 1530l221 -313h136l-181 313h-176zM279 504q0 106 16 184 t65 127q74 74 183 74q111 0 184 -74q49 -49 64.5 -127t15.5 -184t-15.5 -184t-64.5 -127q-74 -74 -184 -74q-109 0 -183 74q-49 49 -65 126.5t-16 184.5z" />
<glyph unicode="&#xf3;" horiz-adv-x="1085" d="M131 504q0 -133 25.5 -231.5t97.5 -170.5q115 -115 289 -114q174 0 288 114q72 72 97.5 170.5t25.5 231.5t-25.5 231.5t-97.5 169.5q-115 115 -288 115q-174 0 -289 -115q-72 -72 -97.5 -170t-25.5 -231zM279 504q0 106 16 184t65 127q74 74 183 74q111 0 184 -74 q49 -49 64.5 -127t15.5 -184t-15.5 -184t-64.5 -127q-74 -74 -184 -74q-109 0 -183 74q-49 49 -65 126.5t-16 184.5zM442 1217h136l221 313h-176z" />
<glyph unicode="&#xf4;" horiz-adv-x="1085" d="M131 504q0 -133 25.5 -231.5t97.5 -170.5q115 -115 289 -114q174 0 288 114q72 72 97.5 170.5t25.5 231.5t-25.5 231.5t-97.5 169.5q-115 115 -288 115q-174 0 -289 -115q-72 -72 -97.5 -170t-25.5 -231zM217 1217h141l185 213l184 -213h141l-256 313h-139zM279 504 q0 106 16 184t65 127q74 74 183 74q111 0 184 -74q49 -49 64.5 -127t15.5 -184t-15.5 -184t-64.5 -127q-74 -74 -184 -74q-109 0 -183 74q-49 49 -65 126.5t-16 184.5z" />
<glyph unicode="&#xf5;" horiz-adv-x="1085" d="M131 504q0 -133 25.5 -231.5t97.5 -170.5q115 -115 289 -114q174 0 288 114q72 72 97.5 170.5t25.5 231.5t-25.5 231.5t-97.5 169.5q-115 115 -288 115q-174 0 -289 -115q-72 -72 -97.5 -170t-25.5 -231zM213 1343l76 -73q43 43 67.5 54t53.5 11q27 0 50 -10t62 -33h2 q43 -25 74 -36t72 -11q43 0 87 21t107 84l-76 73q-41 -41 -66.5 -53t-53.5 -12q-49 0 -115 41q-45 27 -74.5 38t-70.5 11q-45 0 -88.5 -20.5t-106.5 -84.5zM279 504q0 106 16 184t65 127q74 74 183 74q111 0 184 -74q49 -49 64.5 -127t15.5 -184t-15.5 -184t-64.5 -127 q-74 -74 -184 -74q-109 0 -183 74q-49 49 -65 126.5t-16 184.5z" />
<glyph unicode="&#xf6;" horiz-adv-x="1085" d="M131 504q0 -133 25.5 -231.5t97.5 -170.5q115 -115 289 -114q174 0 288 114q72 72 97.5 170.5t25.5 231.5t-25.5 231.5t-97.5 169.5q-115 115 -288 115q-174 0 -289 -115q-72 -72 -97.5 -170t-25.5 -231zM252 1233h147v182h-147v-182zM279 504q0 106 16 184t65 127 q74 74 183 74q111 0 184 -74q49 -49 64.5 -127t15.5 -184t-15.5 -184t-64.5 -127q-74 -74 -184 -74q-109 0 -183 74q-49 49 -65 126.5t-16 184.5zM686 1233h148v182h-148v-182z" />
<glyph unicode="&#xf7;" d="M104 483h861v138h-861v-138zM446 100h177v176h-177v-176zM446 827h177v177h-177v-177z" />
<glyph unicode="&#xf8;" horiz-adv-x="1085" d="M131 504q0 -131 25.5 -228.5t93.5 -169.5l-117 -196h117l78 133q94 -55 215 -55q174 0 288 114q72 72 97.5 170.5t25.5 231.5q0 131 -25.5 228t-92.5 169l116 197h-114l-80 -133q-94 55 -215 55q-174 0 -289 -115q-72 -72 -97.5 -170t-25.5 -231zM279 504q0 106 16 184 t65 127q74 74 183 74q86 0 147 -43l-360 -615q-31 51 -41 118t-10 155zM395 164l363 612q31 -49 40 -116.5t9 -155.5q0 -106 -15.5 -184t-64.5 -127q-74 -74 -184 -74q-84 0 -148 45z" />
<glyph unicode="&#xf9;" horiz-adv-x="1153" d="M174 365q0 -182 102 -283q94 -94 261 -94q176 0 284 125v-113h146v1008h-148v-621q0 -129 -67.5 -198.5t-184.5 -69.5t-181 68.5t-64 199.5v621h-148v-643zM313 1530l222 -313h135l-181 313h-176z" />
<glyph unicode="&#xfa;" horiz-adv-x="1153" d="M174 365q0 -182 102 -283q94 -94 261 -94q176 0 284 125v-113h146v1008h-148v-621q0 -129 -67.5 -198.5t-184.5 -69.5t-181 68.5t-64 199.5v621h-148v-643zM469 1217h135l221 313h-176z" />
<glyph unicode="&#xfb;" horiz-adv-x="1153" d="M174 365q0 -182 102 -283q94 -94 261 -94q176 0 284 125v-113h146v1008h-148v-621q0 -129 -67.5 -198.5t-184.5 -69.5t-181 68.5t-64 199.5v621h-148v-643zM244 1217h141l184 213l185 -213h141l-256 313h-139z" />
<glyph unicode="&#xfc;" horiz-adv-x="1153" d="M174 365q0 -182 102 -283q94 -94 261 -94q176 0 284 125v-113h146v1008h-148v-621q0 -129 -67.5 -198.5t-184.5 -69.5t-181 68.5t-64 199.5v621h-148v-643zM279 1233h147v182h-147v-182zM713 1233h147v182h-147v-182z" />
<glyph unicode="&#xfd;" horiz-adv-x="913" d="M23 1008l362 -988l-72 -196q-25 -72 -58.5 -98.5t-107.5 -26.5h-45v-131h64q57 0 108.5 16.5t87.5 53.5q43 39 72 118l459 1252h-160l-274 -809l-277 809h-159zM356 1217h136l221 313h-176z" />
<glyph unicode="&#xfe;" horiz-adv-x="1118" d="M184 -451h148v570q57 -74 125.5 -102.5t158.5 -28.5q76 0 140.5 23.5t105.5 64.5q70 70 96.5 179.5t26.5 248.5t-26.5 248.5t-96.5 179.5q-41 41 -105.5 64.5t-140.5 23.5q-90 0 -158.5 -27.5t-125.5 -101.5v567h-148v-1909zM332 504q0 82 10 149.5t37 120.5t78 84 t129 31t129 -31t77.5 -84t36 -119.5t9.5 -150.5t-9.5 -150.5t-36 -120t-77.5 -84t-129 -30.5t-129 30.5t-78 84t-37 121t-10 149.5z" />
<glyph unicode="&#xff;" horiz-adv-x="913" d="M23 1008l362 -988l-72 -196q-25 -72 -58.5 -98.5t-107.5 -26.5h-45v-131h64q57 0 108.5 16.5t87.5 53.5q43 39 72 118l459 1252h-160l-274 -809l-277 809h-159zM166 1233h147v182h-147v-182zM600 1233h148v182h-148v-182z" />
<glyph unicode="&#x152;" horiz-adv-x="2025" d="M156 729q0 -139 3 -218t15 -145.5t41 -122t78 -104.5q152 -152 371 -151q102 0 195 42t159 122v-152h893v137h-735v533h622v131h-622v520h731v137h-889v-151q-133 164 -354 163q-219 0 -371 -151q-49 -49 -78 -103.5t-41 -122t-15 -146.5t-3 -218zM311 729q0 127 3 203 t13.5 128t31 92t55.5 75q49 49 114.5 76.5t137.5 27.5t138 -27.5t114 -76.5q35 -37 55 -76t29.5 -92t12.5 -127t3 -203t-3 -202.5t-12.5 -127t-30 -92.5t-54.5 -76q-47 -49 -114 -76.5t-138 -27.5q-72 0 -137.5 27.5t-114.5 76.5q-35 37 -55.5 76t-31 92.5t-13.5 129 t-3 200.5z" />
<glyph unicode="&#x153;" horiz-adv-x="1763" d="M131 504q0 -133 25.5 -231.5t97.5 -170.5q115 -115 289 -114q115 0 205 51t137 143q109 -195 362 -194q125 0 206 36.5t163 118.5l-100 88q-61 -61 -120 -87.5t-145 -26.5q-143 0 -220 91t-77 257h680v67q0 225 -109.5 356.5t-303.5 131.5q-229 0 -334 -195 q-47 92 -138.5 143.5t-205.5 51.5q-174 0 -289 -115q-72 -72 -97.5 -170t-25.5 -231zM279 504q0 106 16 184t65 127q74 74 183 74q111 0 184 -74q49 -49 64.5 -127t15.5 -184t-15.5 -184t-64.5 -127q-74 -74 -184 -74q-109 0 -183 74q-49 49 -65 126.5t-16 184.5zM954 575 q4 63 9.5 95t21.5 73q29 70 92.5 111t143.5 41t143 -41t92 -111q16 -41 23.5 -74t9.5 -94h-535z" />
<glyph unicode="&#x178;" horiz-adv-x="1054" d="M16 1458l435 -856v-602h155v602l430 856h-168l-340 -698l-344 698h-168zM236 1616h147v182h-147v-182zM670 1616h147v182h-147v-182z" />
<glyph unicode="&#x2c6;" horiz-adv-x="1024" d="M186 1217h142l184 213l184 -213h142l-256 313h-140z" />
<glyph unicode="&#x2dc;" horiz-adv-x="1024" d="M182 1343l76 -73q43 43 67.5 54t53.5 11q27 0 50.5 -10t62.5 -33h2q43 -25 73.5 -36t71.5 -11q43 0 87.5 21t107.5 84l-76 73q-41 -41 -66.5 -53t-54.5 -12q-49 0 -115 41q-45 27 -74.5 38t-70.5 11q-45 0 -88 -20.5t-107 -84.5z" />
<glyph unicode="&#x2000;" horiz-adv-x="1008" />
<glyph unicode="&#x2001;" horiz-adv-x="2017" />
<glyph unicode="&#x2002;" horiz-adv-x="1008" />
<glyph unicode="&#x2003;" horiz-adv-x="2017" />
<glyph unicode="&#x2004;" horiz-adv-x="672" />
<glyph unicode="&#x2005;" horiz-adv-x="504" />
<glyph unicode="&#x2006;" horiz-adv-x="336" />
<glyph unicode="&#x2007;" horiz-adv-x="336" />
<glyph unicode="&#x2008;" horiz-adv-x="252" />
<glyph unicode="&#x2009;" horiz-adv-x="403" />
<glyph unicode="&#x200a;" horiz-adv-x="112" />
<glyph unicode="&#x2010;" horiz-adv-x="872" d="M156 483h561v138h-561v-138z" />
<glyph unicode="&#x2011;" horiz-adv-x="872" d="M156 483h561v138h-561v-138z" />
<glyph unicode="&#x2012;" horiz-adv-x="872" d="M156 483h561v138h-561v-138z" />
<glyph unicode="&#x2013;" d="M106 483h857v138h-857v-138z" />
<glyph unicode="&#x2014;" horiz-adv-x="1871" d="M156 483h1560v140h-1560v-140z" />
<glyph unicode="&#x2018;" horiz-adv-x="538" d="M180 1286h178v334l-178 -162v-172z" />
<glyph unicode="&#x2019;" horiz-adv-x="538" d="M180 1124l178 162v172h-178v-334z" />
<glyph unicode="&#x201a;" horiz-adv-x="538" d="M180 -162l178 162v172h-178v-334z" />
<glyph unicode="&#x201c;" horiz-adv-x="888" d="M180 1286h178v334l-178 -162v-172zM528 1286h181v334l-181 -162v-172z" />
<glyph unicode="&#x201d;" horiz-adv-x="888" d="M180 1124l178 162v172h-178v-334zM528 1124l181 162v172h-181v-334z" />
<glyph unicode="&#x201e;" horiz-adv-x="888" d="M180 -162l178 162v172h-178v-334zM528 -162l181 162v172h-181v-334z" />
<glyph unicode="&#x2022;" horiz-adv-x="1089" d="M211 684q0 -68 25.5 -129t71.5 -107.5t107.5 -72t129.5 -25.5t129 25.5t107 72t72 107.5t26 129t-26 129t-72 107.5t-107.5 72t-128.5 25.5q-68 0 -129.5 -25.5t-107.5 -72t-71.5 -107.5t-25.5 -129z" />
<glyph unicode="&#x2026;" horiz-adv-x="1550" d="M180 0h189v188h-189v-188zM680 0h188v188h-188v-188zM1182 0h188v188h-188v-188z" />
<glyph unicode="&#x202f;" horiz-adv-x="403" />
<glyph unicode="&#x2039;" horiz-adv-x="671" d="M82 549l430 -430v182l-246 248l246 246v184z" />
<glyph unicode="&#x203a;" horiz-adv-x="671" d="M160 119l430 430l-430 430v-184l248 -246l-248 -248v-182z" />
<glyph unicode="&#x205f;" horiz-adv-x="504" />
<glyph unicode="&#x20ac;" horiz-adv-x="1388" d="M96 532v103h135v201h-135v100h137q2 63 10.5 117.5t24 100.5t40 87t61.5 78q152 152 370 151q98 0 182.5 -29.5t151 -85t110.5 -136t62 -183.5h-158q-29 135 -119.5 215t-228.5 80q-150 0 -252 -102q-25 -27 -42 -54.5t-28 -62.5t-17.5 -78t-8.5 -98h449v-100h-453v-201 h453v-103h-449q2 -59 8.5 -104t16.5 -80t27.5 -63.5t43.5 -55.5q102 -102 252 -102q137 0 230.5 80t122.5 215h153q-18 -102 -63 -183t-110.5 -136.5t-149.5 -85t-183 -29.5q-219 0 -370 151q-39 39 -63.5 80t-40 88t-22.5 102.5t-10 122.5h-137z" />
<glyph unicode="&#x2122;" horiz-adv-x="1718" d="M74 1350h241v-766h119v766h244v108h-604v-108zM831 584h119v630l209 -413h115l209 413v-630h116v874h-116l-266 -530l-267 530h-119v-874z" />
<glyph unicode="&#x25fc;" horiz-adv-x="1003" d="M0 0v1004h1004v-1004h-1004z" />
</font>
</defs>
</svg>
